<?xml version="1.0" encoding="UTF-8"?>
<svg id="Layer_2" data-name="Layer 2" xmlns="http://www.w3.org/2000/svg" viewBox="0 0 160 160">
  <defs>
    <style>
      .cls-1 {
        fill: red;
        stroke: red;
        stroke-miterlimit: 10;
        stroke-width: .5px;
      }
    </style>
  </defs>
  <rect class="cls-1" x="37.36" y="25.87" width="5.69" height="5.68"/>
  <rect class="cls-1" x="43.04" y="25.87" width="5.69" height="5.68"/>
  <rect class="cls-1" x="48.73" y="25.87" width="5.69" height="5.68"/>
  <rect class="cls-1" x="54.41" y="25.87" width="5.69" height="5.68"/>
  <rect class="cls-1" x="60.1" y="25.87" width="5.69" height="5.68"/>
  <rect class="cls-1" x="94.21" y="25.87" width="5.69" height="5.68"/>
  <rect class="cls-1" x="99.9" y="25.87" width="5.69" height="5.68"/>
  <rect class="cls-1" x="105.59" y="25.87" width="5.69" height="5.68"/>
  <rect class="cls-1" x="111.27" y="25.87" width="5.69" height="5.68"/>
  <rect class="cls-1" x="116.96" y="25.87" width="5.69" height="5.68"/>
  <rect class="cls-1" x="31.67" y="31.55" width="5.69" height="5.68"/>
  <rect class="cls-1" x="65.79" y="31.55" width="5.69" height="5.68"/>
  <rect class="cls-1" x="88.53" y="31.55" width="5.69" height="5.68"/>
  <rect class="cls-1" x="122.64" y="31.55" width="5.69" height="5.68"/>
  <rect class="cls-1" x="25.98" y="37.24" width="5.69" height="5.68"/>
  <rect class="cls-1" x="71.47" y="37.24" width="5.69" height="5.68"/>
  <rect class="cls-1" x="82.84" y="37.24" width="5.69" height="5.68"/>
  <rect class="cls-1" x="128.33" y="37.24" width="5.69" height="5.68"/>
  <rect class="cls-1" x="20.3" y="42.92" width="5.69" height="5.68"/>
  <rect class="cls-1" x="43.04" y="42.92" width="5.69" height="5.68"/>
  <rect class="cls-1" x="54.41" y="42.92" width="5.69" height="5.68"/>
  <rect class="cls-1" x="77.16" y="42.92" width="5.69" height="5.68"/>
  <rect class="cls-1" x="99.9" y="42.92" width="5.69" height="5.68"/>
  <rect class="cls-1" x="111.27" y="42.92" width="5.69" height="5.68"/>
  <rect class="cls-1" x="134.02" y="42.92" width="5.69" height="5.68"/>
  <rect class="cls-1" x="14.61" y="48.6" width="5.69" height="5.68"/>
  <rect class="cls-1" x="20.3" y="48.6" width="5.69" height="5.68"/>
  <rect class="cls-1" x="31.67" y="48.6" width="5.69" height="5.68"/>
  <rect class="cls-1" x="65.79" y="48.6" width="5.69" height="5.68"/>
  <rect class="cls-1" x="77.16" y="48.6" width="5.69" height="5.68"/>
  <rect class="cls-1" x="88.53" y="48.6" width="5.69" height="5.68"/>
  <rect class="cls-1" x="122.64" y="48.6" width="5.69" height="5.68"/>
  <rect class="cls-1" x="134.02" y="48.6" width="5.69" height="5.68"/>
  <rect class="cls-1" x="139.7" y="48.6" width="5.69" height="5.68"/>
  <rect class="cls-1" x="20.3" y="54.28" width="5.69" height="5.68"/>
  <rect class="cls-1" x="77.16" y="54.28" width="5.69" height="5.68"/>
  <rect class="cls-1" x="134.02" y="54.28" width="5.69" height="5.68"/>
  <rect class="cls-1" x="145.39" y="54.28" width="5.69" height="5.68"/>
  <rect class="cls-1" x="20.3" y="59.96" width="5.69" height="5.68"/>
  <rect class="cls-1" x="43.04" y="59.96" width="5.69" height="5.68"/>
  <rect class="cls-1" x="54.41" y="59.96" width="5.69" height="5.68"/>
  <rect class="cls-1" x="77.16" y="59.96" width="5.69" height="5.68"/>
  <rect class="cls-1" x="99.9" y="59.96" width="5.69" height="5.68"/>
  <rect class="cls-1" x="111.27" y="59.96" width="5.69" height="5.68"/>
  <rect class="cls-1" x="134.02" y="59.96" width="5.69" height="5.68"/>
  <rect class="cls-1" x="145.39" y="59.96" width="5.69" height="5.68"/>
  <rect class="cls-1" x="20.3" y="65.65" width="5.69" height="5.68"/>
  <rect class="cls-1" x="31.67" y="65.65" width="5.69" height="5.68"/>
  <rect class="cls-1" x="65.79" y="65.65" width="5.69" height="5.68"/>
  <rect class="cls-1" x="77.16" y="65.65" width="5.69" height="5.68"/>
  <rect class="cls-1" x="88.53" y="65.65" width="5.69" height="5.68"/>
  <rect class="cls-1" x="122.64" y="65.65" width="5.69" height="5.68"/>
  <rect class="cls-1" x="134.02" y="65.65" width="5.69" height="5.68"/>
  <rect class="cls-1" x="145.39" y="65.65" width="5.69" height="5.68"/>
  <rect class="cls-1" x="20.3" y="71.33" width="5.69" height="5.68"/>
  <rect class="cls-1" x="77.16" y="71.33" width="5.69" height="5.68"/>
  <rect class="cls-1" x="134.02" y="71.33" width="5.69" height="5.68"/>
  <rect class="cls-1" x="145.39" y="71.33" width="5.69" height="5.68"/>
  <rect class="cls-1" x="20.3" y="77.01" width="5.69" height="5.68"/>
  <rect class="cls-1" x="77.16" y="77.01" width="5.69" height="5.68"/>
  <rect class="cls-1" x="134.02" y="77.01" width="5.69" height="5.68"/>
  <rect class="cls-1" x="145.39" y="77.01" width="5.69" height="5.68"/>
  <rect class="cls-1" x="20.3" y="82.69" width="5.69" height="5.68"/>
  <rect class="cls-1" x="31.67" y="82.69" width="5.69" height="5.68"/>
  <rect class="cls-1" x="37.36" y="82.69" width="5.69" height="5.68"/>
  <rect class="cls-1" x="43.04" y="82.69" width="5.69" height="5.68"/>
  <rect class="cls-1" x="48.73" y="82.69" width="5.69" height="5.68"/>
  <rect class="cls-1" x="54.41" y="82.69" width="5.69" height="5.68"/>
  <rect class="cls-1" x="60.1" y="82.69" width="5.69" height="5.68"/>
  <rect class="cls-1" x="77.16" y="82.69" width="5.69" height="5.68"/>
  <rect class="cls-1" x="94.21" y="82.69" width="5.69" height="5.68"/>
  <rect class="cls-1" x="99.9" y="82.69" width="5.69" height="5.68"/>
  <rect class="cls-1" x="105.59" y="82.69" width="5.69" height="5.68"/>
  <rect class="cls-1" x="111.27" y="82.69" width="5.69" height="5.68"/>
  <rect class="cls-1" x="116.96" y="82.69" width="5.69" height="5.68"/>
  <rect class="cls-1" x="122.64" y="82.69" width="5.69" height="5.68"/>
  <rect class="cls-1" x="134.02" y="82.69" width="5.69" height="5.68"/>
  <rect class="cls-1" x="145.39" y="82.69" width="5.69" height="5.68"/>
  <rect class="cls-1" x="20.3" y="88.37" width="5.69" height="5.68"/>
  <rect class="cls-1" x="25.98" y="88.37" width="5.69" height="5.68"/>
  <rect class="cls-1" x="65.79" y="88.37" width="5.69" height="5.68"/>
  <rect class="cls-1" x="77.16" y="88.37" width="5.69" height="5.68"/>
  <rect class="cls-1" x="88.53" y="88.37" width="5.69" height="5.68"/>
  <rect class="cls-1" x="128.33" y="88.37" width="5.69" height="5.68"/>
  <rect class="cls-1" x="134.02" y="88.37" width="5.69" height="5.68"/>
  <rect class="cls-1" x="145.39" y="88.37" width="5.69" height="5.68"/>
  <rect class="cls-1" x="20.3" y="94.06" width="5.69" height="5.68"/>
  <rect class="cls-1" x="31.67" y="94.06" width="5.69" height="5.68"/>
  <rect class="cls-1" x="37.36" y="94.06" width="5.69" height="5.68"/>
  <rect class="cls-1" x="43.04" y="94.06" width="5.69" height="5.68"/>
  <rect class="cls-1" x="48.73" y="94.06" width="5.69" height="5.68"/>
  <rect class="cls-1" x="54.41" y="94.06" width="5.69" height="5.68"/>
  <rect class="cls-1" x="60.1" y="94.06" width="5.69" height="5.68"/>
  <rect class="cls-1" x="71.47" y="94.06" width="5.69" height="5.68"/>
  <rect class="cls-1" x="77.16" y="94.06" width="5.69" height="5.68"/>
  <rect class="cls-1" x="82.84" y="94.06" width="5.69" height="5.68"/>
  <rect class="cls-1" x="94.21" y="94.06" width="5.69" height="5.68"/>
  <rect class="cls-1" x="99.9" y="94.06" width="5.69" height="5.68"/>
  <rect class="cls-1" x="105.59" y="94.06" width="5.69" height="5.68"/>
  <rect class="cls-1" x="111.27" y="94.06" width="5.69" height="5.68"/>
  <rect class="cls-1" x="116.96" y="94.06" width="5.69" height="5.68"/>
  <rect class="cls-1" x="122.64" y="94.06" width="5.69" height="5.68"/>
  <rect class="cls-1" x="134.02" y="94.06" width="5.69" height="5.68"/>
  <rect class="cls-1" x="145.39" y="94.06" width="5.69" height="5.68"/>
  <rect class="cls-1" x="20.3" y="99.74" width="5.69" height="5.68"/>
  <rect class="cls-1" x="25.98" y="99.74" width="5.69" height="5.68"/>
  <rect class="cls-1" x="65.79" y="99.74" width="5.69" height="5.68"/>
  <rect class="cls-1" x="77.16" y="99.74" width="5.69" height="5.68"/>
  <rect class="cls-1" x="88.53" y="99.74" width="5.69" height="5.68"/>
  <rect class="cls-1" x="128.33" y="99.74" width="5.69" height="5.68"/>
  <rect class="cls-1" x="134.02" y="99.74" width="5.69" height="5.68"/>
  <rect class="cls-1" x="145.39" y="99.74" width="5.69" height="5.68"/>
  <rect class="cls-1" x="71.47" y="105.42" width="5.69" height="5.68"/>
  <rect class="cls-1" x="77.16" y="105.42" width="5.69" height="5.68"/>
  <rect class="cls-1" x="82.84" y="105.42" width="5.69" height="5.68"/>
  <rect class="cls-1" x="145.39" y="105.42" width="5.69" height="5.68"/>
  <rect class="cls-1" x="37.36" y="111.1" width="5.69" height="5.68"/>
  <rect class="cls-1" x="43.04" y="111.1" width="5.69" height="5.68"/>
  <rect class="cls-1" x="48.73" y="111.1" width="5.69" height="5.68"/>
  <rect class="cls-1" x="54.41" y="111.1" width="5.69" height="5.68"/>
  <rect class="cls-1" x="60.1" y="111.1" width="5.69" height="5.68"/>
  <rect class="cls-1" x="94.21" y="111.1" width="5.69" height="5.68"/>
  <rect class="cls-1" x="99.9" y="111.1" width="5.69" height="5.68"/>
  <rect class="cls-1" x="105.59" y="111.1" width="5.69" height="5.68"/>
  <rect class="cls-1" x="111.27" y="111.1" width="5.69" height="5.68"/>
  <rect class="cls-1" x="116.96" y="111.1" width="5.69" height="5.68"/>
  <rect class="cls-1" x="145.39" y="111.1" width="5.69" height="5.68"/>
  <polygon class="cls-1" points="8.93 54.28 8.93 59.96 8.93 65.65 8.93 71.33 8.93 77.01 8.93 82.69 8.93 88.37 8.93 94.06 8.93 99.74 8.93 105.42 8.93 111.1 8.93 116.78 8.93 122.46 14.61 122.46 14.61 116.78 14.61 111.1 14.61 105.42 14.61 99.74 14.61 94.06 14.61 88.37 14.61 82.69 14.61 77.01 14.61 71.33 14.61 65.65 14.61 59.96 14.61 54.28 8.93 54.28"/>
  <rect class="cls-1" x="25.98" y="116.78" width="5.69" height="5.68"/>
  <rect class="cls-1" x="31.67" y="116.78" width="5.69" height="5.68"/>
  <rect class="cls-1" x="65.79" y="116.78" width="5.69" height="5.68"/>
  <rect class="cls-1" x="71.47" y="116.78" width="5.69" height="5.68"/>
  <rect class="cls-1" x="77.16" y="116.78" width="5.69" height="5.68"/>
  <rect class="cls-1" x="82.84" y="116.78" width="5.69" height="5.68"/>
  <rect class="cls-1" x="88.53" y="116.78" width="5.69" height="5.68"/>
  <rect class="cls-1" x="122.64" y="116.78" width="5.69" height="5.68"/>
  <rect class="cls-1" x="128.33" y="116.78" width="5.69" height="5.68"/>
  <rect class="cls-1" x="145.39" y="116.78" width="5.69" height="5.68"/>
  <rect class="cls-1" x="14.61" y="122.46" width="5.69" height="5.68"/>
  <rect class="cls-1" x="20.3" y="122.46" width="5.69" height="5.68"/>
  <rect class="cls-1" x="134.02" y="122.46" width="5.69" height="5.68"/>
  <rect class="cls-1" x="139.7" y="122.46" width="5.69" height="5.68"/>
</svg>